HIERARCHY
ROOT daito
{
  OFFSET 0 0 0
  CHANNELS 6 Xposition Yposition Zposition Zrotation Xrotation Yrotation
  JOINT Solving
  {
    OFFSET 0 0 0
    CHANNELS 6 Xposition Yposition Zposition Zrotation Xrotation Yrotation
    JOINT Hips
    {
      OFFSET 9.05285 -0.517049 87.4093
      CHANNELS 6 Xposition Yposition Zposition Zrotation Xrotation Yrotation
      JOINT Spine
      {
        OFFSET 0 10.116 -1.83739
        CHANNELS 6 Xposition Yposition Zposition Zrotation Xrotation Yrotation
        JOINT Spine1
        {
          OFFSET 0 11.0615 0
          CHANNELS 6 Xposition Yposition Zposition Zrotation Xrotation Yrotation
          JOINT Spine2
          {
            OFFSET 0 11.0615 0
            CHANNELS 6 Xposition Yposition Zposition Zrotation Xrotation Yrotation
            JOINT Spine3
            {
              OFFSET 0 11.0615 0
              CHANNELS 6 Xposition Yposition Zposition Zrotation Xrotation Yrotation
              JOINT Neck
              {
                OFFSET 0 14.2219 1.42219
                CHANNELS 6 Xposition Yposition Zposition Zrotation Xrotation Yrotation
                JOINT Neck1
                {
                  OFFSET 0 4.28402 0
                  CHANNELS 6 Xposition Yposition Zposition Zrotation Xrotation Yrotation
                  JOINT Head
                  {
                    OFFSET 0 4.28402 0
                    CHANNELS 6 Xposition Yposition Zposition Zrotation Xrotation Yrotation
                    End Site
                    {
                      OFFSET 0 9.71257 0
                    }
                  }
                }
              }
              JOINT RightShoulder
              {
                OFFSET 0 10.1585 5.19711
                CHANNELS 6 Xposition Yposition Zposition Zrotation Xrotation Yrotation
                JOINT RightArm
                {
                  OFFSET 0 18.2966 0
                  CHANNELS 6 Xposition Yposition Zposition Zrotation Xrotation Yrotation
                  JOINT RightForeArm
                  {
                    OFFSET 0 27.7295 0
                    CHANNELS 6 Xposition Yposition Zposition Zrotation Xrotation Yrotation
                    JOINT RightHand
                    {
                      OFFSET 0 23.9679 0
                      CHANNELS 6 Xposition Yposition Zposition Zrotation Xrotation Yrotation
                      JOINT RightHandEnd
                      {
                        OFFSET 0 9.71257 0
                        CHANNELS 6 Xposition Yposition Zposition Zrotation Xrotation Yrotation
                        End Site
                        {
                          OFFSET 0 0 0
                        }
                      }
                      JOINT RightThumb
                      {
                        OFFSET 0 0 0
                        CHANNELS 6 Xposition Yposition Zposition Zrotation Xrotation Yrotation
                        End Site
                        {
                          OFFSET 0 0 6.47505
                        }
                      }
                    }
                  }
                }
              }
              JOINT LeftShoulder
              {
                OFFSET 0 10.1585 5.19711
                CHANNELS 6 Xposition Yposition Zposition Zrotation Xrotation Yrotation
                JOINT LeftArm
                {
                  OFFSET 0 18.2966 0
                  CHANNELS 6 Xposition Yposition Zposition Zrotation Xrotation Yrotation
                  JOINT LeftForeArm
                  {
                    OFFSET 0 27.7295 0
                    CHANNELS 6 Xposition Yposition Zposition Zrotation Xrotation Yrotation
                    JOINT LeftHand
                    {
                      OFFSET 0 23.9679 0
                      CHANNELS 6 Xposition Yposition Zposition Zrotation Xrotation Yrotation
                      JOINT LeftHandEnd
                      {
                        OFFSET 0 9.71257 0
                        CHANNELS 6 Xposition Yposition Zposition Zrotation Xrotation Yrotation
                        End Site
                        {
                          OFFSET 0 0 0
                        }
                      }
                      JOINT LeftThumb
                      {
                        OFFSET 0 0 0
                        CHANNELS 6 Xposition Yposition Zposition Zrotation Xrotation Yrotation
                        End Site
                        {
                          OFFSET 0 0 6.47505
                        }
                      }
                    }
                  }
                }
              }
            }
          }
        }
      }
      JOINT RightUpLeg
      {
        OFFSET -9.60676 0 0
        CHANNELS 6 Xposition Yposition Zposition Zrotation Xrotation Yrotation
        JOINT RightLeg
        {
          OFFSET 0 -39.6157 0
          CHANNELS 6 Xposition Yposition Zposition Zrotation Xrotation Yrotation
          JOINT RightFoot
          {
            OFFSET 0 -40.2599 0
            CHANNELS 6 Xposition Yposition Zposition Zrotation Xrotation Yrotation
            JOINT RightForeFoot
            {
              OFFSET 0 -3.87518 0
              CHANNELS 6 Xposition Yposition Zposition Zrotation Xrotation Yrotation
              JOINT RightToeBase
              {
                OFFSET 0 0 15.1765
                CHANNELS 6 Xposition Yposition Zposition Zrotation Xrotation Yrotation
                End Site
                {
                  OFFSET 0 0 8.37649
                }
              }
            }
          }
        }
      }
      JOINT LeftUpLeg
      {
        OFFSET 9.60676 0 0
        CHANNELS 6 Xposition Yposition Zposition Zrotation Xrotation Yrotation
        JOINT LeftLeg
        {
          OFFSET 0 -39.6157 0
          CHANNELS 6 Xposition Yposition Zposition Zrotation Xrotation Yrotation
          JOINT LeftFoot
          {
            OFFSET 0 -40.2599 0
            CHANNELS 6 Xposition Yposition Zposition Zrotation Xrotation Yrotation
            JOINT LeftForeFoot
            {
              OFFSET 0 -3.87518 0
              CHANNELS 6 Xposition Yposition Zposition Zrotation Xrotation Yrotation
              JOINT LeftToeBase
              {
                OFFSET 0 0 15.1765
                CHANNELS 6 Xposition Yposition Zposition Zrotation Xrotation Yrotation
                End Site
                {
                  OFFSET 0 0 8.45728
                }
              }
            }
          }
        }
      }
    }
  }
}
MOTION
Frames:	6
Frame Time:	0.0166667
0 0 0 90 -3.50835e-15 90 0 0 0 -0 -1.31542e-47 -0 17.6722 -6.83813 78.4173 -28.7278 73.1446 -72.6033 -3.55271e-15 10.116 -1.83739 -3.65922 19.3212 0.538608 3.55271e-15 11.0615 0 -1.80178 7.41518 0.762781 0 11.0615 7.10543e-15 -7.92808 2.45179 5.99136 0 11.0615 7.10543e-15 -9.58116 1.1728 1.13286 0 14.2219 1.42219 0.278616 10.2064 1.16227 1.33227e-15 4.28402 0 -1.00409 -9.6922 -2.64528 1.77636e-15 4.28402 7.10543e-15 -0.062816 -16.915 -0.0864001 0 10.1585 5.19711 90.1709 -13.8763 0.0409838 0 18.2966 0 -7.63299 18.4012 52.2448 1.42109e-14 27.7295 -7.10543e-15 -4.5745e-08 8.39072 -22.888 1.42109e-14 23.9679 3.55271e-15 -6.2514 -26.7422 8.90373e-16 -2.84217e-14 9.71257 0 1.19271e-15 0 -0 0 0 0 1.19271e-15 0 -0 0 10.1585 5.19711 -99.5802 -19.1949 -3.17624 0 18.2966 -1.42109e-14 -26.1124 5.7181 -56.8653 1.42109e-14 27.7295 -1.42109e-14 -2.51073e-05 87.9273 13.9241 -1.42109e-14 23.9679 2.66454e-15 13.5904 -40.8873 -0 -1.42109e-14 9.71257 -1.42109e-14 -0 -1.59028e-15 -0 0 0 0 -0 -1.59028e-15 -0 -9.60676 1.42109e-14 -1.77636e-15 -17.7153 -30.6748 16.8188 0 -39.6157 3.55271e-15 1.95151e-15 62.3479 -8.56644e-16 0 -40.2599 7.10543e-15 5.5487 -26.442 -7.04511 -3.55271e-15 -3.87518 0 5.96354e-16 1.98785e-16 1.59028e-15 -3.55271e-15 4.44089e-16 15.1765 7.03881e-16 5.64621 -1.59803e-15 9.60676 1.42109e-14 -1.77636e-15 -14.9078 -20.0423 5.03738 1.77636e-15 -39.6157 1.06581e-14 5.2103e-16 49.1206 -1.21494e-15 0 -40.2599 0 -3.64726 -24.69 9.83859 1.77636e-15 -3.87518 0 1.95679e-16 -4.96962e-17 -0 -1.77636e-15 0 15.1765 1.94126e-16 -0.334676 -0 
0 0 0 90 -3.50835e-15 90 0 0 0 -0 -1.31542e-47 -0 17.7598 -7.45299 77.9456 -28.1581 72.2723 -73.9556 7.10543e-15 10.116 -1.83739 -3.5383 19.2795 0.466919 0 11.0615 0 -1.8248 7.65175 0.759768 0 11.0615 0 -8.50893 2.62698 5.90878 0 11.0615 0 -10.1519 1.11008 1.03504 0 14.2219 1.42219 -0.683895 9.99199 1.31594 8.88178e-16 4.28402 1.42109e-14 -0.688768 -10.1285 -2.67598 0 4.28402 0 0.0705831 -16.9326 -0.0891887 0 10.1585 5.19711 90.4451 -13.6609 0.102497 1.42109e-14 18.2966 0 -7.79648 18.0276 51.5849 1.42109e-14 27.7295 0 0.200484 10.83 -22.5714 0 23.9679 -1.77636e-15 -7.22083 -27.1063 8.93251e-16 1.42109e-14 9.71257 0 1.78906e-15 1.59028e-15 -7.95139e-16 0 0 0 1.78906e-15 1.59028e-15 -7.95139e-16 0 10.1585 5.19711 -100.332 -19.3359 -3.5045 0 18.2966 -7.10543e-15 -26.0176 5.22609 -57.7162 0 27.7295 0 -4.8719 89.8625 18.4125 1.42109e-14 23.9679 5.32907e-15 12.9204 -41.1234 -1.68888e-14 0 9.71257 -2.84217e-14 -2.38542e-15 -1.59028e-15 -3.18055e-15 0 0 0 -2.38542e-15 -1.59028e-15 -3.18055e-15 -9.60676 0 -3.55271e-15 -18.1674 -31.5541 18.3512 3.55271e-15 -39.6157 -3.55271e-15 1.98767e-15 63.4245 -4.44335e-16 -3.55271e-15 -40.2599 0 5.95396 -27.1459 -7.54769 0 -3.87518 1.77636e-15 2.28602e-15 0 1.59028e-15 -3.55271e-15 -8.88178e-16 15.1765 2.42108e-15 5.74193 -1.5983e-15 9.60676 1.42109e-14 1.77636e-15 -15.8756 -20.7086 5.88007 -1.77636e-15 -39.6157 -3.55271e-15 7.95139e-16 50.0341 -0 1.77636e-15 -40.2599 0 -3.27154 -25.1727 10.0148 0 -3.87518 -1.77636e-15 7.14382e-16 -2.48481e-17 -1.59028e-15 -3.55271e-15 8.88178e-16 15.1765 7.0566e-16 -0.0904539 -1.59028e-15 
0 0 0 90 -3.50835e-15 90 0 0 0 -0 -1.31542e-47 -0 17.8544 -7.8663 77.641 -27.484 71.7832 -75.0026 -3.55271e-15 10.116 -1.83739 -3.41749 19.2378 0.395267 0 11.0615 0 -1.8478 7.88832 0.756764 3.55271e-15 11.0615 0 -9.08928 2.80221 5.82624 1.77636e-15 11.0615 0 -10.3496 1.0406 0.904512 8.88178e-16 14.2219 1.42219 -1.64524 9.77752 1.46943 8.88178e-16 4.28402 1.42109e-14 -0.373928 -10.5648 -2.70691 -1.77636e-15 4.28402 -7.10543e-15 0.20398 -16.9501 -0.0919777 8.88178e-16 10.1585 5.19711 90.7197 -13.4456 0.167361 0 18.2966 -7.10543e-15 -7.58995 17.6081 50.5146 0 27.7295 0 -1.36239e-07 13.2823 -22.2933 -1.42109e-14 23.9679 3.55271e-15 -8.70454 -27.6269 8.97462e-16 -1.42109e-14 9.71257 -7.10543e-15 -3.37934e-15 7.95139e-16 -7.95139e-16 0 0 0 -3.37934e-15 7.95139e-16 -7.95139e-16 8.88178e-16 10.1585 5.19711 -101.05 -19.4785 -3.72562 -1.42109e-14 18.2966 0 -26.3811 4.69322 -58.4644 0 27.7295 0 180 88.2013 -166.763 0 23.9679 1.77636e-15 12.6691 -41.2381 -0 0 9.71257 1.42109e-14 3.97569e-16 -1.19271e-15 -3.18055e-15 0 0 0 3.97569e-16 -1.19271e-15 -3.18055e-15 -9.60676 1.42109e-14 -3.55271e-15 -18.2475 -32.1112 19.7303 0 -39.6157 -3.55271e-15 -2.03311e-15 64.0728 1.81859e-15 -1.77636e-15 -40.2599 3.55271e-15 6.33672 -27.6098 -8.2015 0 -3.87518 0 1.2424e-16 0 -0 0 -4.44089e-16 15.1765 -1.31542e-16 5.61648 1.59795e-15 9.60676 1.42109e-14 0 -16.6861 -21.2989 5.88971 0 -39.6157 3.55271e-15 3.70085e-15 50.6161 -3.75944e-15 1.77636e-15 -40.2599 0 -2.95344 -25.4659 10.5287 0 -3.87518 1.77636e-15 4.28629e-16 -2.48481e-17 -0 0 0 15.1765 -3.65963e-16 0.0725298 7.95139e-16 
0 0 0 90 -3.50835e-15 90 0 0 0 -0 -1.31542e-47 -0 17.9496 -8.06632 77.5393 -26.9954 71.5657 -75.5658 0 10.116 -1.83739 -3.45202 19.3116 0.386894 -3.55271e-15 11.0615 0 -1.85435 7.91009 0.750962 -3.55271e-15 11.0615 -1.42109e-14 -9.03309 2.84854 5.56465 -1.77636e-15 11.0615 0 -10.4107 1.02661 0.780878 -8.88178e-16 14.2219 1.42219 -2.38047 9.78418 1.57243 3.55271e-15 4.28402 0 -0.210197 -10.7612 -2.59896 1.77636e-15 4.28402 7.10543e-15 0.256912 -17.0181 -0.085716 0 10.1585 5.19711 91.2757 -13.1243 0.27994 -1.42109e-14 18.2966 0 -7.20154 17.0084 49.401 -1.42109e-14 27.7295 0 0.237115 16.8665 -23.0493 1.42109e-14 23.9679 7.10543e-15 -10.4854 -28.1442 -1.80352e-15 1.42109e-14 9.71257 0 3.97569e-15 7.95139e-16 -1.59028e-15 0 0 0 3.97569e-15 7.95139e-16 -1.59028e-15 0 10.1585 5.19711 -101.214 -19.4545 -3.81876 1.42109e-14 18.2966 0 -27.0092 4.3238 -59.0387 1.42109e-14 27.7295 1.42109e-14 179.852 87.5949 -166.65 0 23.9679 4.44089e-15 12.7618 -41.2477 8.46043e-15 -1.42109e-14 9.71257 -1.42109e-14 1.59028e-15 -7.95139e-16 -6.36111e-15 0 0 0 1.59028e-15 -7.95139e-16 -6.36111e-15 -9.60676 0 0 -18.0404 -32.2674 20.9216 0 -39.6157 -3.55271e-15 3.52009e-15 64.2475 1.83007e-15 -3.55271e-15 -40.2599 0 6.59252 -27.7795 -8.93639 3.55271e-15 -3.87518 1.77636e-15 -7.45443e-17 0 3.18055e-15 0 4.44089e-16 15.1765 -4.11151e-16 5.59825 3.1958e-15 9.60676 -1.42109e-14 -1.77636e-15 -17.3007 -21.6022 5.37014 0 -39.6157 -7.10543e-15 -1.94534e-15 50.7347 2.51263e-15 0 -40.2599 0 -2.67671 -25.4981 11.2023 1.77636e-15 -3.87518 0 -5.3734e-16 4.96962e-17 -0 0 0 15.1765 -1.33545e-15 0.214309 7.95144e-16 
0 0 0 90 -3.50835e-15 90 0 0 0 -0 -1.31542e-47 -0 18.0289 -8.05523 77.6515 -27.0894 71.5193 -75.3952 3.55271e-15 10.116 -1.83739 -3.48652 19.3853 0.378514 0 11.0615 0 -1.8609 7.93185 0.745159 -3.55271e-15 11.0615 0 -8.97648 2.89485 5.30304 0 11.0615 -7.10543e-15 -10.276 1.0574 0.680486 0 14.2219 1.42219 -3.11572 9.79081 1.67544 0 4.28402 1.42109e-14 -0.0457148 -10.9576 -2.49089 1.77636e-15 4.28402 7.10543e-15 0.30986 -17.0862 -0.0794499 1.77636e-15 10.1585 5.19711 91.8336 -12.803 0.406467 -1.42109e-14 18.2966 -7.10543e-15 -6.3526 16.3594 49.0074 0 27.7295 7.10543e-15 7.00832e-07 20.4188 -23.9309 0 23.9679 -3.55271e-15 -12.0163 -28.849 3.63121e-15 1.42109e-14 9.71257 -3.55271e-15 -1.49089e-16 -3.97569e-16 3.18055e-15 0 0 0 -1.49089e-16 -3.97569e-16 3.18055e-15 1.77636e-15 10.1585 5.19711 -101.348 -19.4325 -3.81989 -1.42109e-14 18.2966 7.10543e-15 -27.7553 4.23199 -59.328 0 27.7295 -7.10543e-15 -180 86.9886 -166.581 1.42109e-14 23.9679 1.77636e-15 12.7532 -41.2335 -4.2293e-15 0 9.71257 1.42109e-14 2.64834e-31 2.38542e-15 -6.36111e-15 0 0 0 2.64834e-31 2.38542e-15 -6.36111e-15 -9.60676 -1.42109e-14 5.32907e-15 -17.5779 -31.9453 21.9126 1.77636e-15 -39.6157 -3.55271e-15 -4.45094e-15 63.984 3.62562e-15 1.77636e-15 -40.2599 3.55271e-15 6.59737 -27.658 -9.85174 -3.55271e-15 -3.87518 1.77636e-15 3.72721e-16 0 3.18055e-15 0 0 15.1765 1.89518e-16 5.6866 1.59814e-15 9.60676 -1.42109e-14 0 -17.6305 -21.4412 4.68452 -1.77636e-15 -39.6157 -7.10543e-15 3.51011e-15 50.3637 -2.49294e-15 0 -40.2599 0 -2.46941 -25.2793 11.8529 -1.77636e-15 -3.87518 1.77636e-15 5.46658e-16 -4.96962e-17 -0 -1.77636e-15 0 15.1765 1.34005e-15 0.322129 -7.95151e-16 
0 0 0 90 -3.50835e-15 90 0 0 0 -0 -1.31542e-47 -0 18.1094 -7.8406 77.9439 -27.4944 71.7173 -74.8062 3.55271e-15 10.116 -1.83739 -3.65537 19.5516 0.440573 0 11.0615 7.10543e-15 -1.86585 7.78958 0.744362 -3.55271e-15 11.0615 7.10543e-15 -8.53275 2.9284 5.0712 1.77636e-15 11.0615 0 -9.98636 1.16054 0.623943 0 14.2219 1.42219 -3.33166 9.59606 1.77982 -1.77636e-15 4.28402 0 -0.166009 -10.6337 -2.35858 0 4.28402 0 0.246798 -17.0759 -0.0720525 0 10.1585 5.19711 92.4126 -12.6308 0.527954 0 18.2966 0 -4.9482 15.8193 49.2319 0 27.7295 7.10543e-15 0.0556834 25.0324 -26.327 1.42109e-14 23.9679 0 -13.2349 -29.7302 1.83133e-15 0 9.71257 3.55271e-15 1.963e-15 0 7.95139e-16 0 0 0 1.963e-15 0 7.95139e-16 0 10.1585 5.19711 -101.103 -19.3758 -3.75049 0 18.2966 7.10543e-15 -28.449 4.42449 -59.3213 1.42109e-14 27.7295 -7.10543e-15 -179.716 87.8014 -166.173 0 23.9679 -1.77636e-15 12.87 -41.1642 4.22482e-15 0 9.71257 0 1.98785e-15 3.57812e-15 9.54166e-15 0 0 0 1.98785e-15 3.57812e-15 9.54166e-15 -9.60676 1.42109e-14 0 -16.8637 -31.2879 22.6121 0 -39.6157 -3.55271e-15 -2.35259e-15 63.2764 5.30461e-15 -1.77636e-15 -40.2599 0 6.28109 -27.2956 -10.8978 0 -3.87518 0 2.23633e-16 0 1.59028e-15 3.55271e-15 4.44089e-16 15.1765 -1.17962e-16 5.68725 3.19629e-15 9.60676 0 0 -17.5104 -20.9482 4.07812 0 -39.6157 -3.55271e-15 -7.95139e-16 49.5367 -0 0 -40.2599 0 -2.68005 -24.8485 12.1228 0 -3.87518 0 -4.19311e-16 9.93923e-17 -0 0 8.88178e-16 15.1765 3.74461e-16 0.174574 -1.59028e-15 
